<svg id="Layer_1" enable-background="new 0 0 512 512" height="512" viewBox="0 0 512 512" width="512" xmlns="http://www.w3.org/2000/svg"><g><path d="m437.6 453.586-8.526-130.053c-.271-4.141-3.85-7.271-7.99-7.007-4.141.272-7.278 3.849-7.007 7.99l8.526 130.053c.728 11.102-3.06 21.689-10.666 29.809s-17.922 12.592-29.047 12.592h-253.779c-11.126 0-21.442-4.472-29.047-12.592-7.606-8.12-11.393-18.707-10.666-29.809l15.588-237.761c.149-2.267.351-4.523.599-6.77.004-.039.008-.079.012-.118 3.98-35.842 20.49-68.887 46.951-93.669 28.146-26.363 64.887-40.882 103.452-40.882s75.306 14.519 103.453 40.881c28.148 26.363 45.039 62.074 47.562 100.557l5.094 77.701c.271 4.141 3.854 7.287 7.99 7.007 4.141-.272 7.278-3.849 7.007-7.99l-5.095-77.701c-.154-2.346-.364-4.68-.614-7.006v-157.64c0-12.912-10.505-23.418-23.418-23.418h-24.541c-12.912 0-23.418 10.505-23.418 23.418v38.269c-6.579-4.517-13.448-8.536-20.557-12.039.071-1.294.115-2.575.115-3.829.001-40.572-33.006-73.579-73.578-73.579s-73.579 33.007-73.579 73.579c0 1.254.044 2.535.115 3.829-7.109 3.503-13.978 7.522-20.558 12.039v-38.269c0-12.912-10.505-23.418-23.418-23.418h-24.54c-12.912 0-23.417 10.505-23.417 23.418v37.191c0 4.15 3.364 7.515 7.515 7.515s7.515-3.365 7.515-7.515v-37.191c0-4.625 3.763-8.389 8.388-8.389h24.541c4.625 0 8.388 3.763 8.388 8.389v49.9c-1.579 1.372-3.142 2.767-4.676 4.203-15.435 14.456-27.789 31.47-36.641 50.142v-36.995c0-4.15-3.365-7.515-7.515-7.515s-7.515 3.364-7.515 7.515v90.391c-.25 2.326-.461 4.66-.614 7.006l-15.589 237.761c-1.003 15.295 4.216 29.88 14.694 41.067 10.477 11.186 24.689 17.347 40.017 17.347h253.779c15.327 0 29.539-6.161 40.017-17.348 10.477-11.187 15.695-25.771 14.693-41.066zm-205.75-391.495c4.313-9.048 13.553-15.255 24.15-15.255s19.837 6.207 24.151 15.255c-7.941-1.157-16.008-1.751-24.151-1.751-8.142 0-16.209.594-24.15 1.751zm133.2-10.913c0-4.625 3.763-8.389 8.388-8.389h24.541c4.625 0 8.388 3.763 8.388 8.389v104.245c-8.852-18.673-21.206-35.686-36.641-50.142-1.534-1.437-3.097-2.832-4.677-4.204v-49.899zm-109.05-36.149c31.394 0 57.087 24.837 58.483 55.892-5.726-2.149-11.573-3.978-17.518-5.482-3.809-19.258-20.813-33.633-40.965-33.633s-37.156 14.375-40.965 33.633c-5.944 1.505-11.792 3.334-17.518 5.482 1.396-31.054 27.089-55.892 58.483-55.892z"/><path d="m150.205 224.431c3.654-58.495 50.125-104.316 105.795-104.316s102.141 45.821 105.795 104.316c.248 3.983 3.556 7.046 7.493 7.046.158 0 .316-.005.476-.015 4.142-.259 7.29-3.826 7.031-7.969-2.008-32.152-15.473-62.007-37.914-84.065-22.531-22.147-51.966-34.344-82.881-34.344s-60.35 12.197-82.881 34.344c-22.441 22.058-35.906 51.913-37.914 84.065-.259 4.142 2.889 7.71 7.031 7.969 4.136.265 7.711-2.889 7.969-7.031z"/><path d="m357.431 445.067h-137.437c-4.15 0-7.515 3.365-7.515 7.515s3.364 7.515 7.515 7.515h137.437c15.393.316 28.711-13.796 27.508-29.143l-6.848-118.486c-.841-14.559-12.924-25.964-27.508-25.964h-189.166c-14.584 0-26.666 11.405-27.507 25.964l-6.848 118.486c-1.203 15.349 12.116 29.459 27.508 29.143h35.366c4.15 0 7.515-3.365 7.515-7.515s-3.365-7.515-7.515-7.515h-35.366c-7.005.159-13.066-6.264-12.504-13.247l5.281-91.379h182.614v17.012c0 4.15 3.364 7.515 7.515 7.515s7.515-3.365 7.515-7.515v-17.012h19.663l5.281 91.379c.562 6.983-5.5 13.406-12.504 13.247zm-209.216-119.656.698-12.078c.383-6.618 5.875-11.802 12.503-11.802h189.166c6.629 0 12.121 5.184 12.504 11.802l.698 12.078z"/></g></svg>