<svg id="outline" height="512" viewBox="0 0 512 512" width="512" xmlns="http://www.w3.org/2000/svg"><path d="m200 80h80v16h-80z"/><path d="m160 80h16v16h-16z"/><path d="m216 136h64v16h-64z"/><path d="m120 136h72v16h-72z"/><path d="m256 192h136v16h-136z"/><path d="m168 192h64v16h-64z"/><path d="m120 192h32v16h-32z"/><path d="m352 248h40v16h-40z"/><path d="m232 248h96v16h-96z"/><path d="m120 248h88v16h-88z"/><path d="m296 304h96v16h-96z"/><path d="m176 304h96v16h-96z"/><path d="m120 304h32v16h-32z"/><path d="m360 360h32v16h-32z"/><path d="m216 360h120v16h-120z"/><path d="m120 360h72v16h-72z"/><path d="m368 416h24v16h-24z"/><path d="m264 416h80v16h-80z"/><path d="m120 416h120v16h-120z"/><path d="m104 496h304a40.04552 40.04552 0 0 0 40-40v-298.74512a39.73513 39.73513 0 0 0 -11.71582-28.28418l-101.25391-101.25488-.001-.00049a39.74137 39.74137 0 0 0 -28.28415-11.71533h-202.74512a40.04552 40.04552 0 0 0 -40 40v400a40.04552 40.04552 0 0 0 40 40zm-24-440a24.0275 24.0275 0 0 1 24-24h202.74512a24.18915 24.18915 0 0 1 5.25488.581v79.419a40.04552 40.04552 0 0 0 40 40h48v-16h-48a24.02718 24.02718 0 0 1 -24-24v-68.68652l96.9707 96.97119a23.83889 23.83889 0 0 1 7.0293 16.97021v298.74512a24.0275 24.0275 0 0 1 -24 24h-304a24.0275 24.0275 0 0 1 -24-24z"/></svg>