<svg height="368pt" viewBox="0 0 368 368" width="368pt" xmlns="http://www.w3.org/2000/svg"><path d="m328 0h-288c-22.054688 0-40 17.945312-40 40 0 4.425781 3.585938 8 8 8s8-3.574219 8-8c0-13.230469 10.769531-24 24-24h288c13.230469 0 24 10.769531 24 24 0 4.425781 3.574219 8 8 8s8-3.574219 8-8c0-22.054688-17.945312-40-40-40zm0 0"/><path d="m328 64h-112.007812c-3.007813 0-5.761719 1.6875-7.128907 4.359375-.199219.394531-.367187.800781-.496093 1.199219-.597657 1.824218-15.121094 45.363281-24.375 73.144531l-24.40625-73.230469c-1.089844-3.273437-4.136719-5.472656-7.585938-5.472656h-112c-22.054688 0-40 17.945312-40 40v64c0 4.425781 3.585938 8 8 8s8-3.574219 8-8c0-13.230469 10.769531-24 24-24h73.96875l62.34375 218.191406c.976562 3.441406 4.121094 5.808594 7.6875 5.808594s6.710938-2.367188 7.6875-5.808594l62.34375-218.191406h73.96875c13.230469 0 24 10.769531 24 24 0 4.425781 3.574219 8 8 8s8-3.574219 8-8v-64c0-22.054688-17.945312-40-40-40zm24 72.015625c-6.6875-5.03125-15-8.015625-24-8.015625h-80c-3.566406 0-6.710938 2.367188-7.695312 5.808594l-56.304688 197.070312-56.3125-197.078125c-.976562-3.433593-4.121094-5.800781-7.6875-5.800781h-80c-9 0-17.3125 2.984375-24 8.015625v-32.015625c0-13.230469 10.769531-24 24-24h106.230469l30.175781 90.527344c1.089844 3.273437 4.144531 5.472656 7.59375 5.472656s6.496094-2.199219 7.59375-5.472656l16-48c7.4375-22.304688 11.671875-35.015625 13.894531-42.527344h106.511719c13.230469 0 24 10.769531 24 24zm0 0"/></svg>